{"title":"DCI Banks S02","uid":9941013,"size":1942734127,"categoryP":"video","categoryS":"tv_shows","magnet":"?xt=urn:btih:f7cb7b6c2ef2b9c7560f7771f7e8e0c244719f9c&amp;dn=DCI+Banks+S02&amp;tr=udp%3A%2F%2Ftracker.openbittorrent.com%3A80&amp;tr=udp%3A%2F%2Fopen.demonii.com%3A1337&amp;tr=udp%3A%2F%2Ftracker.coppersurfer.tk%3A6969&amp;tr=udp%3A%2F%2Fexodus.desync.com%3A6969","seeders":10,"leechers":1,"uploader":"RedBaron58","files":6,"time":1397242506,"description":"DCI Banks Series 2 2011 DVDRip x264 mp4 \n  &lt;a href=&quot;\nhttp://www.imdb.com/title/tt1652216/&quot; rel=&quot;nofollow&quot; target=&quot;_NEW&quot;&gt;\nhttp://www.imdb.com/title/tt1652216/&lt;/a&gt;\n\n\nPlease be patient My upload speed is limited, but I am online most the time and during the night.\nThank you for your kind comments and thumbs ups on my other torrents, your feedback is welcome.\n\n\nAbout the Series:\n\nPlaying with Fire (E01 &amp; E02)\nTwo bodies are found after a fatal fire on two narrow boats. Police suspect arson, and the discovery \nof a forged Turner landscape connects the victims to an art forgery scam.  \nBanks suspects that the father of one of the victims, is deliberately withholding vital information.\n\nFriend of the Devil (E03 &amp; E04)\nDCI Banks assigns DS Cabbot as Senior Investigating Officer on a case involving the mutilated body of a woman \nfound on the Yorkshire moors, while he investigates the murder of a teenager, whose body has been \nfound in a storage room in a dark alleyway.\n\nCold is the Grave (E05 &amp; E06)\nA man commits an armed robbery and is then brutally murdered. Meanwhile, DCI Banks' boss \nwants Banks to find and bring home his runaway teenage daughter.\n\n\nI hope you enjoy.\n\n\nTechnical: (All episodes encoded to the same settings)\n\nGeneral\nComplete name                            : G:DCI Banks S02DCI Banks S02E01 Playing with Fire pt 1 x264 RB58.mp4\nFormat                                   : MPEG-4\nFormat profile                           : Base Media / Version 2\nCodec ID                                 : mp42\nFile size                                : 310 MiB\nDuration                                 : 44mn 56s\nOverall bit rate mode                    : Variable\nOverall bit rate                         : 964 Kbps\nEncoded date                             : UTC 2014-04-10 18:10:34\nTagged date                              : UTC 2014-04-10 18:20:39\nWriting application                      : HandBrake 0.9.8 2012071700\n\nVideo\nID                                       : 1\nFormat                                   : AVC\nFormat/Info                              : Advanced Video Codec\nFormat profile                           : &lt;a class=&quot;__cf_email__&quot; href=&quot;/cdn-cgi/l/email-protection&quot; data-cfemail=&quot;bbf6dad2d5fbf788958b&quot;&gt;[email&amp;#160;protected]&lt;/a&gt;&lt;script cf-hash='f9e31' type=&quot;text/javascript&quot;&gt;\n/* &lt;![CDATA[ */!function(){try{var t=&quot;currentScript&quot;in document?document.currentScript:function(){for(var t=document.getElementsByTagName(&quot;script&quot;),e=t.length;e--;)if(t[e].getAttribute(&quot;cf-hash&quot;))return t[e]}();if(t&amp;&amp;t.previousSibling){var e,r,n,i,c=t.previousSibling,a=c.getAttribute(&quot;data-cfemail&quot;);if(a){for(e=&quot;&quot;,r=parseInt(a.substr(0,2),16),n=2;a.length-n;n+=2)i=parseInt(a.substr(n,2),16)^r,e+=String.fromCharCode(i);e=document.createTextNode(e),c.parentNode.replaceChild(e,c)}}}catch(u){}}();/* ]]&gt; */&lt;/script&gt;\nFormat settings, CABAC                   : Yes\nFormat settings, ReFrames                : 4 frames\nCodec ID                                 : avc1\nCodec ID/Info                            : Advanced Video Coding\nDuration                                 : 44mn 56s\nBit rate mode                            : Variable\nBit rate                                 : 800 Kbps\nWidth                                    : 720 pixels\nHeight                                   : 576 pixels\nDisplay aspect ratio                     : 16:9\nFrame rate mode                          : Constant\nFrame rate                               : 25.000 fps\nStandard                                 : PAL\nColor space                              : YUV\nChroma subsampling                       : 4:2:0\nBit depth                                : 8 bits\nScan type                                : Progressive\nBits/(Pixel*Frame)                       : 0.077\nStream size                              : 257 MiB (83%)\nWriting library                          : x264 core 120\nEncoding settings                        : cabac=1 / ref=1 / deblock=1:0:0 \nEncoded date                             : UTC 2014-04-10 18:10:34\nTagged date                              : UTC 2014-04-10 18:20:39\nColor primaries                          : BT.601 NTSC\nTransfer characteristics                 : BT.709\nMatrix coefficients                      : BT.601\n\nAudio\nID                                       : 2\nFormat                                   : AAC\nFormat/Info                              : Advanced Audio Codec\nFormat profile                           : LC\nCodec ID                                 : 40\nDuration                                 : 44mn 55s\nBit rate mode                            : Variable\nBit rate                                 : 160 Kbps\nMaximum bit rate                         : 284 Kbps\nChannel(s)                               : 2 channels\nChannel positions                        : Front: L R\nSampling rate                            : 48.0 KHz\nCompression mode                         : Lossy\nDelay relative to video                  : 80ms\nStream size                              : 51.4 MiB (17%)\nLanguage                                 : English\nEncoded date                             : UTC 2014-04-10 18:10:34\nTagged date                              : UTC 2014-04-10 18:20:38","torrent":{"xt":"urn:btih:f7cb7b6c2ef2b9c7560f7771f7e8e0c244719f9c","amp;dn":"DCI+Banks+S02","amp;tr":["udp%3A%2F%2Ftracker.openbittorrent.com%3A80","udp%3A%2F%2Fopen.demonii.com%3A1337","udp%3A%2F%2Ftracker.coppersurfer.tk%3A6969","udp%3A%2F%2Fexodus.desync.com%3A6969"],"infoHash":"f7cb7b6c2ef2b9c7560f7771f7e8e0c244719f9c","infoHashBuffer":{"type":"Buffer","data":[247,203,123,108,46,242,185,199,86,15,119,113,247,232,224,194,68,113,159,156]},"announce":[],"urlList":[]}}